<?xml version="1.0" standalone="no"?>
<!DOCTYPE svg PUBLIC "-//W3C//DTD SVG 20010904//EN"
 "http://www.w3.org/TR/2001/REC-SVG-20010904/DTD/svg10.dtd">
<svg version="1.0" xmlns="http://www.w3.org/2000/svg"
 width="421.000000pt" height="349.000000pt" viewBox="0 0 421.000000 349.000000"
 preserveAspectRatio="xMidYMid meet">
<metadata>
Created by potrace 1.16, written by Peter Selinger 2001-2019
</metadata>
<g transform="translate(0.000000,349.000000) scale(0.100000,-0.100000)"
fill="#000000" stroke="none">
<path d="M0 1745 l0 -1745 2105 0 2105 0 0 1745 0 1745 -2105 0 -2105 0 0
-1745z m2187 1349 c19 -9 45 -31 58 -48 13 -17 146 -244 296 -504 150 -261
277 -476 284 -478 6 -3 199 58 429 136 229 77 433 140 452 140 48 0 100 -26
126 -62 26 -37 35 -108 18 -148 -26 -64 -62 -82 -356 -180 -403 -134 -504
-171 -504 -182 0 -5 58 -109 129 -231 183 -316 444 -774 470 -825 52 -102 8
-203 -100 -232 -33 -9 -47 -8 -82 8 -58 27 -83 57 -164 202 -133 236 -554 965
-562 973 -4 4 -135 -36 -292 -88 -233 -79 -292 -95 -328 -92 -74 8 -130 64
-138 140 -5 37 -1 54 20 90 33 56 50 64 336 158 123 41 225 79 228 85 3 9
-354 641 -377 667 -8 9 -59 -77 -550 -933 -172 -300 -378 -657 -458 -795 -79
-137 -156 -270 -169 -295 -57 -102 -124 -141 -202 -120 -48 13 -107 76 -116
124 -10 49 3 80 110 266 62 108 90 166 81 168 -7 2 -71 -18 -141 -43 -145 -51
-201 -56 -253 -25 -92 56 -97 205 -9 262 12 8 164 63 336 122 173 59 321 112
328 118 7 5 90 146 185 312 94 165 224 391 288 501 64 110 184 318 265 463 82
144 162 278 179 298 50 62 117 79 183 48z"/>
</g>
</svg>
