<?xml version="1.0" encoding="UTF-8" standalone="no"?>
<svg
   xmlns:dc="http://purl.org/dc/elements/1.1/"
   xmlns:cc="http://creativecommons.org/ns#"
   xmlns:rdf="http://www.w3.org/1999/02/22-rdf-syntax-ns#"
   xmlns:svg="http://www.w3.org/2000/svg"
   xmlns="http://www.w3.org/2000/svg"
   xmlns:sodipodi="http://sodipodi.sourceforge.net/DTD/sodipodi-0.dtd"
   xmlns:inkscape="http://www.inkscape.org/namespaces/inkscape"
   version="1.1"
   id="svg10"
   xml:space="preserve"
   width="968.44"
   height="263.78668"
   viewBox="0 0 968.44 263.78668"
   sodipodi:docname="Appartogo_logo.svg"
   inkscape:version="1.0 (4035a4fb49, 2020-05-01)"
   inkscape:export-filename="C:\Users\franc\OneDrive\Documents\Emploi\Rentogo\Design Phase 1\Logo\Source File\Appartogo_centered.png"
   inkscape:export-xdpi="96"
   inkscape:export-ydpi="96"><metadata
     id="metadata16"><rdf:RDF><cc:Work
         rdf:about=""><dc:format>image/svg+xml</dc:format><dc:type
           rdf:resource="http://purl.org/dc/dcmitype/StillImage" /><dc:title></dc:title></cc:Work></rdf:RDF></metadata><defs
     id="defs14"><clipPath
       clipPathUnits="userSpaceOnUse"
       id="clipPath28"><path
         d="M 0,197.84 H 726.33 V 0 H 0 Z"
         id="path26" /></clipPath><clipPath
       id="clipPath920"
       clipPathUnits="userSpaceOnUse"><path
         id="path918"
         d="M 0,197.84 H 726.33 V 0 H 0 Z" /></clipPath></defs><sodipodi:namedview
     inkscape:document-rotation="0"
     pagecolor="#ffffff"
     bordercolor="#666666"
     borderopacity="1"
     objecttolerance="10"
     gridtolerance="10"
     guidetolerance="10"
     inkscape:pageopacity="0"
     inkscape:pageshadow="2"
     inkscape:window-width="3200"
     inkscape:window-height="1690"
     id="namedview12"
     showgrid="false"
     inkscape:zoom="1.6903474"
     inkscape:cx="432.98745"
     inkscape:cy="131.89334"
     inkscape:window-x="-12"
     inkscape:window-y="-12"
     inkscape:window-maximized="1"
     inkscape:current-layer="g910" /><g
     id="g18"
     inkscape:groupmode="layer"
     inkscape:label="Appartogo"
     transform="matrix(1.3333333,0,0,-1.3333333,0,263.78667)"><g
       inkscape:label="Appartogo"
       id="g910"><g
         id="g942"><g
           id="g22"><g
             clip-path="url(#clipPath28)"
             id="g24"><g
               transform="translate(256.1706,68.9628)"
               id="g30"><path
                 id="path32"
                 style="fill:#ffffff;fill-opacity:1;fill-rule:nonzero;stroke:none"
                 d="M 0,0 -4.677,19.764 H -4.836 L -9.671,0 Z m -11.415,-7.006 -2.141,-8.593 c -0.713,-2.975 -2.14,-4.165 -5.549,-4.165 -3.171,0 -4.994,1.521 -4.994,3.834 0,0.793 0.239,2.314 0.634,3.635 l 10.147,35.628 c 1.348,4.825 2.775,6.213 8.72,6.213 5.39,0 7.372,-1.388 8.72,-6.213 L 14.189,-12.03 c 0.397,-1.454 0.793,-2.909 0.793,-3.635 0,-2.974 -2.615,-4.099 -5.232,-4.099 -3.884,0 -5.39,1.323 -6.421,5.752 l -1.664,7.006 z" /></g><g
               transform="translate(301.508,76.9604)"
               id="g34"><path
                 id="path36"
                 style="fill:#ffffff;fill-opacity:1;fill-rule:nonzero;stroke:none"
                 d="m 0,0 h 4.757 c 4.756,0 6.896,2.711 6.896,6.875 0,4.958 -2.378,7.139 -6.342,7.139 H 0 Z m -10.622,15.93 c 0,3.306 1.823,4.76 5.707,4.76 H 8.323 c 8.879,0 14.428,-3.9 14.428,-13.419 0,-7.534 -4.281,-13.946 -13.555,-13.946 L 0,-6.675 V -23.2 c 0,-2.777 -2.457,-4.562 -5.311,-4.562 -2.854,0 -5.311,1.785 -5.311,4.562 z" /></g><g
               transform="translate(355.4074,76.9604)"
               id="g38"><path
                 id="path40"
                 style="fill:#ffffff;fill-opacity:1;fill-rule:nonzero;stroke:none"
                 d="m 0,0 h 4.757 c 4.756,0 6.896,2.711 6.896,6.875 0,4.958 -2.378,7.139 -6.342,7.139 H 0 Z m -10.622,15.93 c 0,3.306 1.823,4.76 5.707,4.76 H 8.323 c 8.879,0 14.428,-3.9 14.428,-13.419 0,-7.534 -4.281,-13.946 -13.555,-13.946 L 0,-6.675 V -23.2 c 0,-2.777 -2.457,-4.562 -5.311,-4.562 -2.854,0 -5.311,1.785 -5.311,4.562 z" /></g><g
               transform="translate(416.4433,68.9628)"
               id="g42"><path
                 id="path44"
                 style="fill:#ffffff;fill-opacity:1;fill-rule:nonzero;stroke:none"
                 d="M 0,0 -4.677,19.764 H -4.836 L -9.671,0 Z m -11.415,-7.006 -2.141,-8.593 c -0.713,-2.975 -2.14,-4.165 -5.549,-4.165 -3.171,0 -4.994,1.521 -4.994,3.834 0,0.793 0.239,2.314 0.634,3.635 l 10.147,35.628 c 1.348,4.825 2.775,6.213 8.72,6.213 5.39,0 7.372,-1.388 8.72,-6.213 L 14.189,-12.03 c 0.397,-1.454 0.793,-2.909 0.793,-3.635 0,-2.974 -2.615,-4.099 -5.232,-4.099 -3.884,0 -5.39,1.323 -6.421,5.752 l -1.664,7.006 z" /></g><g
               transform="translate(461.7808,77.49)"
               id="g46"><path
                 id="path48"
                 style="fill:#ffffff;fill-opacity:1;fill-rule:nonzero;stroke:none"
                 d="m 0,0 h 4.122 c 4.281,0 7.293,1.586 7.293,6.741 0,4.76 -1.744,6.743 -6.817,6.743 H 0 Z m -10.622,15.4 c 0,3.306 1.823,4.76 5.707,4.76 H 9.671 c 9.592,0 12.842,-5.486 12.842,-12.229 0,-6.278 -2.061,-9.121 -6.896,-10.773 5.628,-1.653 6.58,-4.561 6.58,-10.114 v -5.09 c 0,-2.643 0.713,-5.023 0.713,-7.403 0,-1.388 -1.507,-2.842 -5.073,-2.842 -3.965,0 -6.343,1.388 -6.501,4.495 l -0.476,12.163 c -0.158,3.304 -2.14,4.957 -6.262,4.957 H 0 v -17.053 c 0,-2.778 -2.457,-4.562 -5.311,-4.562 -2.854,0 -5.311,1.784 -5.311,4.562 z" /></g><g
               transform="translate(535.0239,97.6505)"
               id="g50"><path
                 id="path52"
                 style="fill:#ffffff;fill-opacity:1;fill-rule:nonzero;stroke:none"
                 d="M 0,0 C 3.964,0 5.549,-1.719 5.549,-3.967 5.549,-6.213 3.964,-7.932 0,-7.932 H -8.403 V -43.89 c 0,-2.777 -2.457,-4.562 -5.311,-4.562 -2.854,0 -5.312,1.785 -5.312,4.562 v 35.958 h -8.402 c -3.963,0 -5.549,1.719 -5.549,3.965 0,2.248 1.586,3.967 5.549,3.967 z" /></g><g
               transform="translate(569.6592,69.2276)"
               id="g54"><path
                 id="path56"
                 style="fill:#ffffff;fill-opacity:1;fill-rule:nonzero;stroke:none"
                 d="m 0,0 c 0,-11.633 2.061,-13.286 6.341,-13.286 4.281,0 6.342,1.653 6.342,13.286 v 10.047 c 0,10.245 -2.14,12.493 -6.342,12.493 C 2.14,22.54 0,20.292 0,10.047 Z m -11.098,10.047 c 0,17.45 8.561,19.499 17.439,19.499 8.879,0 17.44,-2.049 17.44,-19.499 V 0 c 0,-17.913 -7.61,-20.292 -17.44,-20.292 -9.829,0 -17.439,2.379 -17.439,20.292 z" /></g><g
               transform="translate(648.3702,52.8344)"
               id="g58"><path
                 id="path60"
                 style="fill:#ffffff;fill-opacity:1;fill-rule:nonzero;stroke:none"
                 d="m 0,0 c 0,-2.248 -1.11,-3.636 -4.122,-3.636 -2.854,0 -4.202,1.72 -4.202,3.901 v 1.256 h -0.158 c -2.299,-3.437 -5.787,-5.157 -10.623,-5.157 -12.525,0 -15.22,9.254 -15.22,22.872 v 4.825 c 0,16.128 5.153,21.878 18.153,21.878 C -4.836,45.939 0,39.924 0,34.373 c 0,-3.239 -1.507,-5.289 -5.311,-5.289 -3.727,0 -4.836,1.587 -5.311,5.685 -0.238,2.048 -1.745,4.164 -6.026,4.164 -3.804,0 -6.579,-1.918 -6.579,-12.889 v -6.61 c 0,-11.568 1.189,-16.063 7.055,-16.063 4.677,0 6.025,3.834 6.025,9.651 v 2.71 h -4.36 c -3.012,0 -4.281,1.719 -4.281,3.767 0,2.644 1.744,3.769 4.598,3.769 h 8.879 C -1.507,23.268 0,21.88 0,18.904 Z" /></g><g
               transform="translate(680.5486,69.2276)"
               id="g62"><path
                 id="path64"
                 style="fill:#ffffff;fill-opacity:1;fill-rule:nonzero;stroke:none"
                 d="m 0,0 c 0,-11.633 2.061,-13.286 6.341,-13.286 4.281,0 6.342,1.653 6.342,13.286 v 10.047 c 0,10.245 -2.14,12.493 -6.342,12.493 C 2.14,22.54 0,20.292 0,10.047 Z m -11.098,10.047 c 0,17.45 8.561,19.499 17.439,19.499 8.879,0 17.44,-2.049 17.44,-19.499 V 0 c 0,-17.913 -7.61,-20.292 -17.44,-20.292 -9.829,0 -17.439,2.379 -17.439,20.292 z" /></g><g
               transform="translate(162.1238,98.4073)"
               id="g66"><path
                 id="path68"
                 style="fill:#ffffff;fill-opacity:1;fill-rule:nonzero;stroke:none"
                 d="m 0,0 c 1.702,0.627 3.397,1.275 5.112,1.865 2.296,0.789 4.61,1.522 6.91,2.296 1.756,0.592 19.001,6.453 28.205,9.581 3.337,1.133 5.578,4.265 5.578,7.79 v 0 c 0,5.627 -5.519,9.595 -10.852,7.799 C 23.304,25.407 6.114,19.607 3.515,18.703 -0.043,17.466 -3.627,16.306 -7.182,15.06 c -1.726,-0.605 -2.323,-0.479 -3.198,1.035 -1.34,2.321 -2.647,4.661 -3.977,6.987 -2.873,5.03 -5.745,10.06 -8.632,15.082 -3.272,5.691 -6.557,11.375 -9.841,17.06 -2.178,3.769 -4.241,7.611 -6.577,11.28 -3.392,5.329 -10.377,5.189 -13.631,0.329 -2.738,-4.09 -5.053,-8.467 -7.496,-12.751 -3.502,-6.143 -6.916,-12.335 -10.433,-18.47 -2.921,-5.096 -5.974,-10.117 -8.9,-15.211 -4.169,-7.26 -8.268,-14.559 -12.41,-21.835 -2.436,-4.279 -4.871,-8.559 -7.362,-12.806 -0.709,-1.208 -1.256,-2.622 -2.806,-3.105 -0.956,-0.299 -1.903,-0.623 -2.853,-0.942 -4.612,-1.551 -9.228,-3.093 -13.836,-4.657 -3.415,-1.16 -10.208,-3.482 -15.173,-5.182 -3.419,-1.17 -5.83,-4.35 -5.817,-7.963 0.021,-5.699 5.645,-9.692 11.036,-7.822 4.887,1.695 10.019,3.469 12.485,4.277 0.721,0.236 1.474,0.373 2.211,0.556 -0.284,-0.709 -0.491,-1.463 -0.866,-2.121 -2.93,-5.144 -5.906,-10.26 -8.836,-15.402 -1.649,-2.895 -1.868,-5.952 -0.071,-8.768 3.369,-5.28 10.266,-5.515 13.831,-0.354 1.731,2.507 3.044,5.301 4.58,7.946 2.672,4.599 5.4,9.166 8.05,13.778 5.677,9.877 11.31,19.779 16.98,29.66 3.599,6.273 7.253,12.514 10.849,18.788 4.732,8.256 9.424,16.534 14.149,24.793 1.805,3.157 3.653,6.29 5.483,9.432 1.272,2.185 2.546,4.367 3.958,6.787 3.322,-5.753 6.477,-11.213 9.628,-16.676 3.61,-6.26 7.212,-12.525 10.831,-18.779 0.41,-0.708 0.301,-1.201 -0.466,-1.468 -1.079,-0.377 -2.178,-0.697 -3.265,-1.054 -2.36,-0.776 -4.719,-1.554 -7.076,-2.341 -3.266,-1.091 -6.533,-2.181 -9.793,-3.289 -1.986,-0.674 -4.045,-1.206 -5.923,-2.109 -4.164,-2.001 -6.096,-7.159 -3.56,-11.628 1.213,-2.137 3.004,-3.503 5.535,-3.905 2.845,-0.451 5.374,0.532 7.945,1.436 2.208,0.776 4.411,1.571 6.631,2.313 2.257,0.754 4.544,1.416 6.797,2.184 3.799,1.296 7.573,2.667 11.384,3.927 0.319,0.105 1.02,-0.277 1.23,-0.623 1.389,-2.288 2.692,-4.628 4.024,-6.951 2.379,-4.149 4.759,-8.299 7.138,-12.448 2.57,-4.479 5.137,-8.961 7.711,-13.438 2.649,-4.607 5.315,-9.204 7.955,-13.817 1.997,-3.491 4.035,-6.961 5.924,-10.511 2.359,-4.435 6.932,-7.177 11.62,-4.896 3.45,1.678 5.837,6.311 4.316,9.844 -1.128,2.619 -2.611,5.092 -4.018,7.583 -2.662,4.713 -5.391,9.387 -8.076,14.085 -2.587,4.528 -5.141,9.075 -7.736,13.599 -2.069,3.607 -4.182,7.19 -6.268,10.789 C 4.044,-8.985 1.885,-5.258 -0.251,-1.517 -0.547,-0.998 -0.962,-0.354 0,0" /></g></g></g><path
           d="M 0,0 H 240.03941 V 197.84 H 0 Z"
           style="fill:#c61717;fill-opacity:1;fill-rule:nonzero;stroke:none;stroke-width:0.574876"
           id="path912" /><path
           id="path960"
           style="fill:#ffffff;fill-opacity:1;fill-rule:nonzero;stroke:none;stroke-width:1.06789"
           d="m 170.04028,101.00896 c 1.81978,0.66874 3.63208,1.35988 5.46577,1.98916 2.45489,0.84153 4.92903,1.62333 7.38821,2.44886 1.87752,0.63141 20.31596,6.88262 30.15692,10.21887 3.56793,1.20843 5.96402,4.54895 5.96402,8.30863 v 0 c 0,6.00162 -5.90094,10.23379 -11.60301,8.31822 -12.45517,-4.18524 -30.8348,-10.37138 -33.61366,-11.33557 -3.80423,-1.31935 -7.63626,-2.55658 -11.43728,-3.88553 -1.84545,-0.64528 -2.48377,-0.51089 -3.41932,1.1039 -1.43273,2.47552 -2.83019,4.97131 -4.25223,7.45217 -3.07182,5.36488 -6.14258,10.72976 -9.22937,16.0861 -3.49844,6.06989 -7.01078,12.1323 -10.52205,18.19579 -2.32873,4.01993 -4.53449,8.11771 -7.03216,12.03098 -3.62674,5.68378 -11.09514,5.53446 -14.57433,0.3509 -2.92748,-4.36229 -5.40269,-9.0307 -8.01476,-13.59991 -3.74435,-6.55198 -7.39462,-13.15622 -11.155013,-19.69966 C 91.03887,133.5566 87.774588,128.20132 84.646095,122.76818 80.18858,115.02484 75.80591,107.2399 71.377263,99.479494 68.772681,94.915613 66.169167,90.350667 63.505778,85.820918 62.747712,84.532494 62.162857,83.024355 60.505589,82.509199 59.483429,82.190293 58.470893,81.844722 57.455148,81.504484 52.523976,79.850225 47.588526,78.205564 42.661631,76.537439 39.010296,75.300211 31.747188,72.823621 26.438587,71.010442 c -3.655611,-1.247895 -6.233464,-4.639607 -6.219564,-8.493146 0.02245,-6.078418 6.03566,-10.337256 11.799743,-8.342759 5.225204,1.807847 10.712363,3.699953 13.349022,4.561746 0.770897,0.251712 1.576008,0.397833 2.364012,0.593017 -0.303654,-0.756203 -0.52498,-1.560401 -0.925932,-2.262208 -3.13277,-5.486468 -6.314723,-10.943072 -9.447493,-16.427406 -1.763119,-3.087738 -1.997274,-6.348262 -0.07591,-9.35174 3.602151,-5.631522 10.976457,-5.882168 14.788172,-0.377568 1.850793,2.673906 3.254659,5.65392 4.896958,8.475014 2.856915,4.905184 5.773705,9.776237 8.607098,14.695286 6.069876,10.534573 12.092706,21.09581 18.155097,31.634649 3.848068,6.690632 7.754942,13.347137 11.599803,20.038833 5.059477,8.80565 10.076187,17.63477 15.128177,26.44362 1.92991,3.36718 3.90581,6.70876 5.86245,10.05994 1.36003,2.33047 2.7222,4.65774 4.23191,7.23886 3.5519,-6.13602 6.92524,-11.95952 10.29431,-17.78623 3.85983,-6.67676 7.7111,-13.35886 11.58055,-20.02923 0.43838,-0.75514 0.32183,-1.28096 -0.49825,-1.56573 -1.15367,-0.4021 -2.32872,-0.74341 -3.49095,-1.12418 -2.52332,-0.82766 -5.04558,-1.65745 -7.56569,-2.49685 -3.49203,-1.16363 -6.98512,-2.3262 -10.47073,-3.50797 -2.12344,-0.71887 -4.32493,-1.28629 -6.3329,-2.24941 -4.45216,-2.134216 -6.51787,-7.635613 -3.80636,-12.402142 1.29694,-2.279273 3.21189,-3.736216 5.91804,-4.16498 3.04189,-0.481026 5.74591,0.567419 8.49484,1.531603 2.3608,0.827664 4.71626,1.675592 7.08989,2.466991 2.4132,0.804199 4.85847,1.510272 7.26739,2.329402 4.06191,1.382283 8.09709,2.844559 12.17182,4.188445 0.34108,0.111991 1.09059,-0.295442 1.31513,-0.664477 1.48512,-2.440326 2.8783,-4.936114 4.30248,-7.413771 2.54363,-4.425224 5.08834,-8.851515 7.63198,-13.27674 2.74786,-4.777194 5.49251,-9.557589 8.24464,-14.33265 2.83232,-4.913716 5.68282,-9.816767 8.50552,-14.736883 2.1352,-3.723417 4.31424,-7.424436 6.33397,-11.210782 2.52226,-4.730265 7.41173,-7.654817 12.42416,-5.221957 3.68876,1.789715 6.24095,6.731163 4.61469,10.499376 -1.20606,2.793363 -2.79169,5.431006 -4.29607,8.087847 -2.84622,5.026773 -5.76408,10.01195 -8.63489,15.022725 -2.76604,4.829457 -5.49679,9.679179 -8.27137,14.504369 -2.21219,3.84714 -4.47142,7.668683 -6.70178,11.50729 -2.30841,3.97513 -4.61682,7.950259 -6.90065,11.940318 -0.31648,0.55356 -0.7602,1.240426 0.26838,1.617996" /><path
           style="stroke-width:0.75;fill:#1a0826;fill-opacity:1"
           fill="#ffffff"
           d="m 294.56155,112.4328 c -1.101,3.94275 -2.86575,5.208 -7.263,5.208 -4.9305,0 -6.18825,-1.36425 -7.2615,-5.20425 l -7.60725,-26.7105 c -0.294,-0.981 -0.507,-2.21775 -0.507,-2.94225 0,-2.202 1.76475,-3.62475 4.4955,-3.62475 2.844,0 4.2615,1.07175 4.89,3.69225 l 1.46325,5.8755 h 8.63175 l 1.11,-4.674 c 0.85125,-3.6585 2.25075,-4.893 5.54625,-4.893 2.8395,0 4.674,1.50075 4.674,3.82425 0,0.645 -0.3015,1.752 -0.62325,2.931 z M 289.7998,95.4813 h -5.34975 l 2.7195,11.11425 z"
           id="path3" /><path
           style="stroke-width:0.75;fill:#1a0826;fill-opacity:1"
           fill="#ffffff"
           d="m 330.9928,116.9973 h -9.9285 c -3.33825,0 -5.031,-1.4535 -5.031,-4.32 V 83.3298 c 0,-2.37825 2.03475,-4.1715 4.73325,-4.1715 2.6985,0 4.734,1.79325 4.734,4.1715 v 11.643 h 6.14625 c 6.6315,0 10.917,4.40025 10.917,11.2095 0,7.0755 -4.00125,10.815 -11.571,10.815 z m 1.7475,-11.11125 c 0,-2.9235 -1.488,-4.40625 -4.422,-4.40625 h -2.817 v 9.0105 h 3.23325 c 2.733,0 4.00575,-1.46325 4.00575,-4.60425 z"
           id="path5" /><path
           style="stroke-width:0.75;fill:#1a0826;fill-opacity:1"
           fill="#ffffff"
           d="m 371.4178,116.9973 h -9.9285 c -3.33825,0 -5.031,-1.4535 -5.031,-4.32 V 83.3298 c 0,-2.37825 2.03475,-4.1715 4.73325,-4.1715 2.6985,0 4.73325,1.79325 4.73325,4.1715 v 11.643 h 6.147 c 6.6315,0 10.91625,4.40025 10.91625,11.2095 0,7.0755 -4.00125,10.815 -11.57025,10.815 z m 1.74675,-11.11125 c 0,-2.9235 -1.488,-4.40625 -4.422,-4.40625 h -2.81775 v 9.0105 h 3.234 c 2.733,0 4.00575,-1.46325 4.00575,-4.60425 z"
           id="path7" /><path
           style="stroke-width:0.75;fill:#1a0826;fill-opacity:1"
           fill="#ffffff"
           d="m 414.76555,112.4328 c -1.101,3.94275 -2.865,5.208 -7.26225,5.208 -4.92975,0 -6.189,-1.36425 -7.2615,-5.20425 l -7.608,-26.7105 c -0.294,-0.98175 -0.507,-2.2185 -0.507,-2.94225 0,-2.202 1.76475,-3.62475 4.4955,-3.62475 2.84475,0 4.2615,1.07175 4.89,3.69225 l 1.46325,5.8755 h 8.63175 l 1.11,-4.674 c 0.852,-3.6585 2.2515,-4.893 5.54625,-4.893 2.8395,0 4.674,1.50075 4.674,3.82425 0,0.645 -0.3015,1.752 -0.62325,2.931 z M 410.0038,95.4813 h -5.349 l 2.71875,11.115 z"
           id="path9" /><path
           style="stroke-width:0.75;fill:#1a0826;fill-opacity:1"
           fill="#ffffff"
           d="m 462.3523,87.5928 v 3.8175 c 0,3.79425 -0.61725,6.174 -3.681,7.63425 2.75925,1.497 3.91875,3.948 3.91875,8.031 0,6.39825 -3.687,9.92175 -10.3815,9.92175 h -10.9395 c -3.33825,0 -5.031,-1.4535 -5.031,-4.32 V 83.3298 c 0,-2.37825 2.03475,-4.1715 4.734,-4.1715 2.69925,0 4.734,1.79325 4.734,4.1715 v 12.03975 h 2.6985 c 3.3525,0 3.87675,-1.518 3.94725,-2.997 l 0.357,-9.1305 c 0.096,-1.863 1.149,-4.083 5.625,-4.083 3.14625,0 4.55475,1.4475 4.55475,2.8815 0,0.92325 -0.135,1.84575 -0.26475,2.7375 -0.13425,0.9105 -0.2715,1.85175 -0.2715,2.81475 z m -9.58575,18.59025 c 0,-3.018 -1.4115,-4.30575 -4.71975,-4.30575 h -2.3415 v 8.613 h 2.6985 c 3.303,0 4.36275,-1.04625 4.36275,-4.30725 z"
           id="path11" /><path
           style="stroke-width:0.75;fill:#1a0826;fill-opacity:1"
           fill="#ffffff"
           d="m 499.88756,116.9973 h -20.57175 c -4.557,0 -4.91175,-2.8515 -4.91175,-3.72525 0,-0.87375 0.35475,-3.7245 4.91175,-3.7245 h 5.5515 V 83.3298 c 0,-2.37825 2.03475,-4.1715 4.734,-4.1715 2.69925,0 4.734,1.79325 4.734,4.1715 v 26.21775 h 5.55225 c 4.557,0 4.91175,2.85075 4.91175,3.7245 0,0.87375 -0.354,3.72525 -4.91175,3.72525 z"
           id="path13" /><path
           style="stroke-width:0.75;fill:#1a0826;fill-opacity:1"
           fill="#ffffff"
           d="m 530.62031,117.83955 c -7.18275,0 -13.82925,-1.86225 -13.82925,-15.37425 v -7.53525 c 0,-13.25325 5.52825,-15.969 13.82925,-15.969 8.301,0 13.82925,2.71575 13.82925,15.969 v 7.53525 c 0,13.512 -6.6465,15.37425 -13.82925,15.37425 z m 4.0065,-22.9095 c 0,-8.769 -1.5225,-9.2145 -4.0065,-9.2145 -2.484,0 -4.0065,0.4455 -4.0065,9.2145 v 7.53525 c 0,7.9845 1.73625,8.61975 4.0065,8.61975 2.27025,0 4.0065,-0.63525 4.0065,-8.61975 z"
           id="path15" /><path
           style="stroke-width:0.75;fill:#1a0826;fill-opacity:1"
           fill="#ffffff"
           d="m 572.41181,111.08505 c 2.2815,0 3.5865,-0.8505 3.774,-2.45925 0.3615,-3.12 1.25175,-4.92675 4.72875,-4.92675 3.05175,0 4.73325,1.67475 4.73325,4.716 0,4.69125 -3.9825,9.4245 -12.879,9.4245 -10.3365,0 -14.364,-4.8105 -14.364,-17.1585 V 97.0623 c 0,-9.2985 1.47375,-17.90325 12.165,-17.90325 3.1125,0 5.6025,0.93 7.4265,2.76975 0.36225,-1.70925 1.7775,-2.76975 3.81,-2.76975 3.17475,0 3.8415,1.89075 3.8415,3.47625 v 14.178 c 0,2.70675 -1.548,4.02225 -4.73325,4.02225 h -6.65925 c -3.6525,0 -4.1985,-2.24025 -4.1985,-3.57675 0,-2.172 1.554,-3.57525 3.96,-3.57525 h 2.52 v -1.2825 c 0,-5.71725 -1.905,-6.48825 -3.76875,-6.48825 -3.56475,0 -4.54125,2.4285 -4.54125,11.29725 v 4.95675 c 0,8.22975 2.067,8.91825 4.185,8.91825 z"
           id="path17" /><path
           style="stroke-width:0.75;fill:#1a0826;fill-opacity:1"
           fill="#ffffff"
           d="m 613.78706,117.83955 c -7.182,0 -13.8285,-1.86225 -13.8285,-15.37425 v -7.53525 c 0,-13.25325 5.52825,-15.969 13.8285,-15.969 8.301,0 13.83,2.71575 13.83,15.969 v 7.53525 c 0,13.512 -6.64725,15.37425 -13.83,15.37425 z m -4.00575,-15.37425 c 0,7.9845 1.7355,8.61975 4.00575,8.61975 2.27025,0 4.00725,-0.63525 4.00725,-8.61975 v -7.53525 c 0,-8.769 -1.5225,-9.2145 -4.00725,-9.2145 -2.484,0 -4.00575,0.4455 -4.00575,9.2145 z"
           id="path19" /><path
           id="path912-5"
           style="fill:#000000;fill-opacity:0;fill-rule:nonzero;stroke:none;stroke-width:0.818986"
           d="M 240.03941,0 H 727.21737 V 197.84 H 240.03941 Z" /></g></g></g></svg>
